<svg xmlns="http://www.w3.org/2000/svg" width="40" height="40" viewBox="0 0 40 40" fill="none">
    <path d="M21.3793 3.07693H0V21.5385H13.7931L8.96552 40H27.5862L35.1724 9.23078H20L21.3793 3.07693Z" fill="#59BBAF"/>
    <path d="M23.4482 18.4615H40V0H30.7889C28.9168 0 27.2951 1.29842 26.8857 3.12516L23.4482 18.4615Z" fill="#59BBAF" fill-opacity="0.6"/>
    <path d="M28.7222 21C29.1342 21.0005 29.5401 21.0997 29.9059 21.2894C30.2716 21.4791 30.5866 21.7537 30.8243 22.0901C31.0621 22.4266 31.2157 22.8151 31.2724 23.2232C31.3291 23.6313 31.2871 24.047 31.15 24.4356H34.73C34.9553 24.4356 35.1784 24.4799 35.3865 24.5661C35.5947 24.6524 35.7838 24.7787 35.9431 24.938C36.1024 25.0973 36.2288 25.2865 36.315 25.4946C36.4012 25.7027 36.4456 25.9258 36.4456 26.1511V29.7322C36.8346 29.5934 37.2512 29.55 37.6605 29.6059C38.0698 29.6617 38.4596 29.8151 38.7972 30.053C39.1348 30.291 39.4103 30.6066 39.6004 30.9733C39.7906 31.34 39.8898 31.747 39.8898 32.16C39.8898 32.573 39.7906 32.98 39.6004 33.3467C39.4103 33.7134 39.1348 34.029 38.7972 34.267C38.4596 34.5049 38.0698 34.6583 37.6605 34.7141C37.2512 34.77 36.8346 34.7266 36.4456 34.5878V38.1689C36.4461 38.3946 36.4022 38.6181 36.3163 38.8268C36.2303 39.0354 36.104 39.2251 35.9447 39.3848C35.7853 39.5446 35.596 39.6714 35.3875 39.7579C35.1791 39.8444 34.9557 39.8889 34.73 39.8889H31.1556C31.2935 39.5 31.3361 39.0837 31.2797 38.6749C31.2234 38.2662 31.0697 37.8769 30.8316 37.5399C30.5936 37.2029 30.2781 36.9279 29.9117 36.7381C29.5453 36.5483 29.1387 36.4493 28.7261 36.4493C28.3135 36.4493 27.9069 36.5483 27.5405 36.7381C27.1741 36.9279 26.8586 37.2029 26.6206 37.5399C26.3825 37.8769 26.2289 38.2662 26.1725 38.6749C26.1161 39.0837 26.1587 39.5 26.2967 39.8889H22.7156C22.4899 39.8889 22.2664 39.8444 22.058 39.7579C21.8496 39.6714 21.6603 39.5446 21.5009 39.3848C21.3415 39.2251 21.2153 39.0354 21.1293 38.8268C21.0434 38.6181 20.9994 38.3946 21 38.1689V34.6044C21.3878 34.7402 21.8024 34.7811 22.2092 34.7237C22.616 34.6663 23.0031 34.5123 23.3382 34.2746C23.6733 34.0368 23.9465 33.7223 24.1351 33.3573C24.3237 32.9923 24.4221 32.5875 24.4221 32.1767C24.4221 31.7658 24.3237 31.361 24.1351 30.996C23.9465 30.631 23.6733 30.3165 23.3382 30.0788C23.0031 29.8411 22.616 29.6871 22.2092 29.6297C21.8024 29.5723 21.3878 29.6132 21 29.7489V26.1678C21 25.7128 21.1808 25.2764 21.5025 24.9547C21.8242 24.633 22.2606 24.4522 22.7156 24.4522H26.2956C26.1585 24.0637 26.1166 23.6479 26.1735 23.2399C26.2305 22.8318 26.3845 22.4434 26.6227 22.1072C26.8609 21.771 27.1763 21.4969 27.5424 21.3079C27.9085 21.1189 28.3147 21.0206 28.7267 21.0211L28.7233 21H28.7222Z" fill="white"/>
    <path d="M34.73 39.3889H31.7826C31.8132 39.1298 31.8109 38.8669 31.775 38.6066C31.7077 38.1186 31.5243 37.6538 31.24 37.2514C30.9558 36.849 30.5792 36.5207 30.1417 36.2941C29.7042 36.0676 29.2188 35.9493 28.7261 35.9493C28.2335 35.9493 27.748 36.0676 27.3105 36.2941C26.8731 36.5207 26.4964 36.849 26.2122 37.2514C25.928 37.6538 25.7445 38.1186 25.6772 38.6066C25.6413 38.8669 25.639 39.1298 25.6697 39.3889H22.7156C22.5557 39.3889 22.3973 39.3573 22.2497 39.2961C22.102 39.2348 21.9678 39.145 21.8549 39.0317C21.742 38.9185 21.6525 38.7842 21.5916 38.6363C21.5307 38.4885 21.4996 38.3301 21.5 38.1702V38.1689V35.2289C21.7582 35.2585 22.0199 35.2553 22.279 35.2188C22.7649 35.1502 23.2273 34.9663 23.6275 34.6824C24.0277 34.3984 24.3541 34.0228 24.5793 33.5868C24.8045 33.1509 24.9221 32.6674 24.9221 32.1767C24.9221 31.686 24.8045 31.2024 24.5793 30.7665C24.3541 30.3306 24.0277 29.9549 23.6275 29.671C23.2273 29.3871 22.7649 29.2031 22.279 29.1346C22.0199 29.098 21.7582 29.0948 21.5 29.1244V26.1678C21.5 25.8454 21.6281 25.5362 21.856 25.3083C22.084 25.0803 22.3932 24.9522 22.7156 24.9522H26.2956H27.0022L26.7671 24.2858C26.6566 23.9728 26.6229 23.6378 26.6687 23.3089C26.7146 22.9801 26.8387 22.6671 27.0307 22.3962C27.2226 22.1254 27.4768 21.9045 27.7718 21.7522C28.0668 21.5999 28.394 21.5207 28.726 21.5211L29.0172 21.5215C29.2463 21.5547 29.4689 21.6261 29.6757 21.7333C29.9705 21.8862 30.2243 22.1075 30.416 22.3787C30.6076 22.6499 30.7315 22.9631 30.7772 23.292C30.8228 23.6209 30.789 23.956 30.6785 24.2692L30.4434 24.9356H31.15H34.73C34.8896 24.9356 35.0477 24.967 35.1952 25.0281C35.3427 25.0892 35.4767 25.1787 35.5895 25.2916C35.7024 25.4045 35.7919 25.5385 35.853 25.6859C35.9141 25.8334 35.9456 25.9915 35.9456 26.1511V29.7322V30.4416L36.6136 30.2031C36.9272 30.0912 37.263 30.0563 37.5929 30.1013C37.9228 30.1463 38.237 30.2699 38.5091 30.4617C38.7813 30.6535 39.0033 30.9079 39.1566 31.2035C39.3098 31.499 39.3898 31.8271 39.3898 32.16C39.3898 32.4929 39.3098 32.821 39.1566 33.1165C39.0033 33.4121 38.7813 33.6665 38.5091 33.8583C38.237 34.0501 37.9228 34.1737 37.5929 34.2187C37.263 34.2637 36.9272 34.2288 36.6136 34.1169L35.9456 33.8784V34.5878L35.9456 38.1689L35.9456 38.1702C35.946 38.3301 35.9148 38.4885 35.8539 38.6363C35.793 38.7842 35.7036 38.9185 35.5907 39.0317C35.4777 39.145 35.3436 39.2348 35.1959 39.2961C35.0482 39.3573 34.8899 39.3889 34.73 39.3889Z" stroke="#59BBAF" stroke-opacity="0.6"/>
</svg>