<svg width="40" height="40" viewBox="0 0 40 40" fill="none" xmlns="http://www.w3.org/2000/svg">
<rect x="0.5" y="0.5" width="39" height="39" fill="#1CE5C1" stroke="white"/>
<path d="M30.3419 33.0328H30.547V31.826C30.547 31.1926 31.0769 30.6705 31.7265 30.6705H32.9487C32.9316 30.5506 32.9316 30.4223 32.9316 30.3024C32.9316 29.0357 33.9829 28 35.2735 28C36.5641 28 37.6154 29.0357 37.6154 30.3024C37.6154 30.4223 37.6154 30.5506 37.5983 30.6705H38.8205C39.4701 30.6705 40 31.1926 40 31.826V33.5378C40 33.6919 39.9402 33.8031 39.8205 33.8973C39.7009 33.9914 39.5726 34.0171 39.4274 33.9914C39.2991 33.9658 39.1538 33.9401 39.0513 33.9401C38.2821 33.9401 37.6325 34.582 37.6325 35.3352C37.6325 36.1056 38.265 36.7304 39.0513 36.7304C39.1624 36.7304 39.2991 36.7047 39.4274 36.679C39.5556 36.6448 39.7094 36.6876 39.8205 36.7732C39.9402 36.8588 40 36.9786 40 37.1327V38.8445C40 39.4779 39.4701 40 38.8205 40H31.7094C31.3846 40 31.0684 39.8631 30.8462 39.632C30.641 39.4094 30.5385 39.1355 30.547 38.8445V37.6377H30.3419C29.0513 37.6377 28 36.602 28 35.3352C28 34.0685 29.0513 33.0328 30.3419 33.0328ZM31.4444 37.0385V38.8103C31.4444 38.9472 31.5641 39.067 31.7094 39.067H38.812C38.9573 39.067 39.0769 38.9558 39.0769 38.8103V37.6291C39.0684 37.6291 39.0513 37.6291 39.0427 37.6205C37.7521 37.612 36.7094 36.5849 36.7094 35.3181C36.7094 34.6933 36.9573 34.1027 37.4103 33.6662C37.8632 33.2297 38.4615 32.9986 39.0855 33.0157V31.8345C39.0855 31.6976 38.9658 31.5777 38.8205 31.5777H36.9829C36.8376 31.5777 36.6838 31.5007 36.5897 31.3723C36.5128 31.2611 36.4957 31.1155 36.5556 30.9529C36.641 30.7646 36.6923 30.5506 36.6923 30.3452C36.6923 29.5749 36.0598 28.9501 35.2735 28.9501C34.5043 28.9501 33.8547 29.592 33.8547 30.3452C33.8547 30.525 33.8718 30.7304 33.9829 30.9444C34.0598 31.0728 34.0427 31.2525 33.9573 31.3723C33.8718 31.475 33.7265 31.5777 33.5641 31.5777H31.7094C31.5641 31.5777 31.4444 31.689 31.4444 31.8345V33.632C31.4444 33.786 31.3846 33.8973 31.265 33.9914C31.1368 34.0856 30.9829 34.1027 30.8376 34.0428C30.7009 33.9743 30.547 33.9401 30.359 33.9401C29.5897 33.9401 28.9402 34.582 28.9402 35.3352C28.9402 36.1056 29.5726 36.7304 30.359 36.7304C30.4957 36.7304 30.6496 36.679 30.7949 36.6362L30.8462 36.6191C31.0171 36.5763 31.1538 36.5934 31.265 36.679C31.3761 36.7304 31.4444 36.8673 31.4444 37.0385Z" fill="white"/>
<path d="M28.5 8H37L35.8571 12L34 18.5H32.3971H22.5L25 10C25.5404 8.16262 26 8 28.5 8Z" fill="#A4F5E6"/>
<path d="M30 13H19.5L14 30.5H25.5L30 13Z" fill="#D1FAF2" fill-opacity="0.8"/>
<path d="M8.5 10H21L19.8571 14L18 20.5H16.3971H3C3 20.5 4.5 14 5 12C5.5 10 6.68113 10.1027 8.5 10Z" fill="white"/>
</svg>
